<?xml version="1.0" standalone="no"?>
<!DOCTYPE svg PUBLIC "-//W3C//DTD SVG 20010904//EN"
 "http://www.w3.org/TR/2001/REC-SVG-20010904/DTD/svg10.dtd">
<svg version="1.0" xmlns="http://www.w3.org/2000/svg"
 width="240.000000pt" height="210.000000pt" viewBox="0 0 240.000000 210.000000"
 preserveAspectRatio="xMidYMid meet">

<g transform="translate(0.000000,210.000000) scale(0.100000,-0.100000)"
fill="#000000" stroke="none">
<path d="M370 2079 c-97 -26 -151 -58 -225 -133 -71 -73 -107 -142 -130 -251
-35 -173 45 -375 189 -474 l43 -30 12 52 c16 63 71 201 83 205 4 2 8 10 8 17
0 8 6 20 13 27 7 7 27 33 44 58 65 93 189 194 313 252 62 30 143 58 165 58 27
0 16 25 -33 75 -81 86 -142 121 -253 149 -84 21 -136 20 -229 -5z"/>
<path d="M865 1705 c-98 -29 -228 -108 -290 -176 -83 -90 -145 -203 -171 -309
-23 -94 -27 -90 81 -90 126 0 198 23 304 98 53 37 139 143 140 172 1 9 5 20
10 25 29 33 50 190 35 264 -6 27 -10 31 -38 30 -17 -1 -49 -7 -71 -14z"/>
<path d="M401 961 c-11 -7 -11 -18 -1 -62 54 -239 237 -433 475 -504 97 -29
105 -22 105 91 0 262 -226 484 -494 484 -39 0 -77 -4 -85 -9z"/>
<path d="M1509 950 c-31 -10 -76 -28 -100 -41 -48 -24 -163 -134 -179 -171 -5
-12 -14 -30 -19 -38 -38 -63 -57 -180 -46 -273 l7 -56 32 5 c48 8 128 33 162
52 18 9 49 26 70 37 67 34 194 172 236 256 61 121 89 226 65 241 -23 15 -171
7 -228 -12z"/>
<path d="M239 905 c-2 -6 -23 -23 -46 -39 -48 -32 -116 -118 -143 -179 -10
-23 -26 -78 -35 -122 -15 -73 -15 -85 0 -160 19 -92 51 -170 89 -212 15 -17
32 -37 39 -45 31 -38 132 -100 203 -123 191 -62 401 1 526 159 35 45 38 51 22
54 -68 13 -245 90 -294 129 -137 107 -209 189 -269 310 -46 92 -49 98 -70 173
-10 36 -20 60 -22 55z"/>
<path d="M1887 893 c-4 -3 -7 -16 -7 -27 -1 -23 -33 -122 -44 -133 -3 -3 -6
-12 -6 -20 0 -7 -21 -48 -46 -91 -65 -108 -199 -237 -306 -296 -84 -45 -188
-86 -220 -86 -33 0 -27 -18 23 -73 65 -72 130 -113 227 -144 64 -21 91 -24
157 -20 274 16 465 215 465 482 0 160 -67 296 -194 393 -31 23 -39 26 -49 15z"/>
</g>
</svg>
